<?xml version="1.0" encoding="utf-8"?>
<!-- Generator: Adobe Illustrator 22.0.0, SVG Export Plug-In . SVG Version: 6.00 Build 0)  -->
<svg version="1.1" id="Calque_1" xmlns="http://www.w3.org/2000/svg" xmlns:xlink="http://www.w3.org/1999/xlink" x="0px" y="0px"
	 viewBox="0 0 500.7 276.2" style="enable-background:new 0 0 500.7 276.2;" xml:space="preserve">
<style type="text/css">
	.st0{clip-path:url(#SVGID_2_);}
	.st1{clip-path:url(#SVGID_4_);fill:#003DA6;}
	.st2{clip-path:url(#SVGID_4_);fill:#00B2E3;}
	.st3{clip-path:url(#SVGID_4_);fill:none;stroke:#FFB71B;stroke-width:0.4841;stroke-miterlimit:10;}
	.st4{clip-path:url(#SVGID_6_);}
	.st5{clip-path:url(#SVGID_8_);fill:#003DA6;}
	.st6{clip-path:url(#SVGID_8_);fill-rule:evenodd;clip-rule:evenodd;fill:#003DA6;}
	.st7{clip-path:url(#SVGID_8_);fill:#00B2E3;}
	.st8{clip-path:url(#SVGID_8_);fill-rule:evenodd;clip-rule:evenodd;fill:#00B2E3;}
	.st9{clip-path:url(#SVGID_8_);fill:#FFB71B;}
	.st10{clip-path:url(#SVGID_8_);fill-rule:evenodd;clip-rule:evenodd;fill:#FFB71B;}
</style>
<g>
	<g>
		<defs>
			<rect id="SVGID_1_" x="258.4" y="26.4" width="245.3" height="253.5"/>
		</defs>
		<clipPath id="SVGID_2_">
			<use xlink:href="#SVGID_1_"  style="overflow:visible;"/>
		</clipPath>
		<g class="st0">
			<defs>
				<rect id="SVGID_3_" x="258.4" y="26.4" width="245.3" height="253.5"/>
			</defs>
			<clipPath id="SVGID_4_">
				<use xlink:href="#SVGID_3_"  style="overflow:visible;"/>
			</clipPath>
			<path class="st1" d="M285.3,81h-3.1l-7.6-37.5h3.6l4.9,27.3c0.2,0.9,0.4,3.4,0.6,5.1h0.2c0.2-1.7,0.3-4.2,0.5-5.1l4.9-27.3h3.5
				L285.3,81z"/>
			<rect x="297.4" y="43.4" class="st1" width="3.5" height="37.5"/>
			<path class="st1" d="M321.5,79.9c-1.3,0.9-3.1,1.5-4.8,1.5c-8.8,0-10.1-11.5-10.1-17.9c0-6.1,0.2-20.6,10.5-20.6
				c1.4,0,3.3,0.3,4.4,1.2V48c-1.4-0.9-2.6-1.6-4.4-1.6c-6.1,0-6.9,8.8-6.9,15.8c0,4.4,0,16,6.7,16c1.7,0,3.3-0.7,4.6-1.7V79.9z"/>
			<polygon class="st1" points="339,46.6 333.4,46.6 333.4,81 329.9,81 329.9,46.6 324.3,46.6 324.3,43.4 339,43.4 			"/>
			<path class="st1" d="M360.6,62.2c0,7-0.5,19.3-9.2,19.3c-8.2,0-9.2-10.5-9.2-19.3c0-9.5,1.2-19.3,9.2-19.3
				C359.8,42.9,360.6,53.9,360.6,62.2 M345.7,62.2c0,6.6,0.2,15.9,5.6,15.9c5.4,0,5.6-9.3,5.6-15.9c0-6.6-0.2-15.9-5.6-15.9
				C346,46.1,345.7,55.6,345.7,62.2"/>
			<path class="st1" d="M366.3,81V43.4h3.7c5.2,0,10.3,0.4,10.3,9.6c0,4.8-1,9.5-7.1,9.7l8.3,18.3h-3.7l-8-18.4h-0.1V81H366.3z
				 M369.8,59.8h1.2c4.9,0,5.7-1.7,5.7-6.6c0-5.9-1.8-6.5-6.2-6.5h-0.7V59.8z"/>
			<polygon class="st1" points="423.6,81 420.1,81 420.1,61.6 411.5,61.6 411.5,81 408,81 408,43.4 411.5,43.4 411.5,58.4 
				420.1,58.4 420.1,43.4 423.6,43.4 			"/>
			<path class="st1" d="M446,69.1c0,6.9-0.5,12.4-7.9,12.4c-7.5,0-7.9-5.7-7.9-12.4V43.4h3.5v25.4c0,6.2,0.3,9.2,4.4,9.2
				c4,0,4.4-3,4.4-9.2V43.4h3.5V69.1z"/>
			<path class="st1" d="M459.8,61.2h8.6v6.9c0,5.9-0.3,13.4-8.1,13.4c-7.9,0-8.7-8.3-8.7-20.2c0-8.9,1-18.4,9-18.4
				c4.5,0,6.7,3,7.7,7.1l-3.4,1.3c-0.4-2.2-1.3-5-4.1-5c-5.2,0-5.6,8.1-5.6,14.7c0,13.9,1.7,17.1,5.4,17.1c3.9,0,4.3-2.9,4.3-10.9
				v-2.8h-5.1V61.2z"/>
			<path class="st1" d="M491.4,62.2c0,7-0.5,19.3-9.2,19.3c-8.2,0-9.2-10.5-9.2-19.3c0-9.5,1.2-19.3,9.2-19.3
				C490.7,42.9,491.4,53.9,491.4,62.2 M476.6,62.2c0,6.6,0.2,15.9,5.6,15.9c5.4,0,5.6-9.3,5.6-15.9c0-6.6-0.2-15.9-5.6-15.9
				C476.9,46.1,476.6,55.6,476.6,62.2"/>
			<path class="st1" d="M301,130.7h-3.4l-2.6-27.7c-0.1-1.2-0.1-2.3-0.2-3.5h-0.2c-0.3,2.5-0.4,4.9-0.8,7.4l-4.1,23.8h-2.8
				l-4.1-27.7c-0.2-1.2-0.3-2.3-0.4-3.5H282c-0.1,2.4-0.1,5-0.3,7.4l-3,23.8h-3.4l5.3-37.5h3l4.2,28c0.2,1.2,0.3,2.5,0.4,3.7h0.1
				c0.2-2.1,0.4-4.3,0.7-6.5l4.3-25.2h3L301,130.7z"/>
			<path class="st1" d="M322.9,130.7h-3.7l-1.4-7.7h-8l-1.3,7.7h-3.7l7.4-37.5h3.3L322.9,130.7z M317.2,120l-2.5-14.4
				c-0.4-2.5-0.6-5.1-0.9-7.7h-0.2c-0.3,2.5-0.6,5.1-1,7.7l-2.2,14.4H317.2z"/>
			<path class="st1" d="M344.1,130.7h-3l-8.5-25.2c-0.5-1.5-0.8-3.2-1.3-4.8h-0.2c0.1,2.4,0.4,4.8,0.4,7.3v22.8h-3V93.2h3l8.6,26.1
				c0.4,1.3,0.8,2.6,1.1,3.9h0.1c-0.1-1.6-0.3-3.3-0.3-5v-25h3V130.7z"/>
			<path class="st1" d="M359.8,123.7c0,4.7-0.3,7.5-5.4,7.5c-1.4,0-2.7-0.3-4.1-0.9v-3.6c1,0.9,2.1,1.6,3.4,1.6
				c2.2,0,2.5-1.9,2.5-3.9V93.2h3.5V123.7z"/>
			<path class="st1" d="M383.9,118.8c0,6.9-0.5,12.4-7.9,12.4c-7.5,0-7.9-5.7-7.9-12.4V93.2h3.5v25.4c0,6.2,0.3,9.2,4.4,9.2
				c4,0,4.4-3,4.4-9.2V93.2h3.5V118.8z"/>
			<path class="st1" d="M405.4,99.1c-1.5-1.7-3.1-3-5.5-3c-3.5,0-5.4,2.9-5.4,6.1c0,4.4,3.2,6.4,6.4,8.6c3.2,2.2,6.4,4.6,6.4,9.8
				c0,5.5-3.5,10.7-9.4,10.7c-2.1,0-4.2-0.6-5.9-1.9v-4.5c1.6,1.7,3.7,3,6.1,3c3.7,0,5.7-3.2,5.7-6.6c0-4.4-3.2-6.3-6.4-8.6
				c-3.2-2.2-6.4-4.6-6.4-10c0-5,3.1-10,8.6-10c2.2,0,4.1,0.7,5.9,2V99.1z"/>
			<polygon class="st1" points="429.9,130.7 426.4,130.7 426.4,111.4 417.8,111.4 417.8,130.7 414.3,130.7 414.3,93.2 417.8,93.2 
				417.8,108.2 426.4,108.2 426.4,93.2 429.9,93.2 			"/>
			<path class="st1" d="M438.5,130.7V93.2h3.7c5.2,0,10.3,0.4,10.3,9.6c0,4.8-1,9.5-7.1,9.7l8.3,18.3H450l-8-18.4H442v18.4H438.5z
				 M442,109.5h1.2c4.9,0,5.7-1.7,5.7-6.6c0-5.9-1.8-6.5-6.2-6.5H442V109.5z"/>
			<polygon class="st1" points="471.9,96.4 463.5,96.4 463.5,109.6 471.6,109.6 471.6,112.8 463.5,112.8 463.5,127.6 471.9,127.6 
				471.9,130.7 460.1,130.7 460.1,93.2 471.9,93.2 			"/>
			<polygon class="st1" points="491.3,96.4 483,96.4 483,109.6 491,109.6 491,112.8 483,112.8 483,127.6 491.3,127.6 491.3,130.7 
				479.5,130.7 479.5,93.2 491.3,93.2 			"/>
			<path class="st1" d="M285.3,180.5h-3.1l-7.6-37.5h3.6l4.9,27.3c0.2,0.9,0.4,3.4,0.6,5.1h0.2c0.2-1.7,0.3-4.2,0.5-5.1l4.9-27.3
				h3.5L285.3,180.5z"/>
			<rect x="305.3" y="143" class="st1" width="3.5" height="37.5"/>
			<path class="st1" d="M323.6,143h3.8c7.2,0,11.8,0.9,11.8,18.8c0,14.7-2.4,18.8-11.6,18.8h-4V143z M327.1,177.3h1
				c6.7,0,7.6-4.7,7.6-15.6c0-12.9-1.3-15.6-8-15.6h-0.6V177.3z"/>
			<path class="st1" d="M361.6,164.1v16.4h-3.5v-16.4l-7.3-21.1h3.7l3.7,12.6c0.5,1.6,0.9,3.3,1.4,5h0.2c0.3-1.7,0.6-3.5,1.1-5.2
				l3.7-12.4h3.7L361.6,164.1z"/>
			<path class="st1" d="M393.7,180.5H390l-1.4-7.7h-8l-1.3,7.7h-3.7l7.4-37.5h3.3L393.7,180.5z M388,169.8l-2.5-14.4
				c-0.4-2.5-0.6-5.1-0.9-7.7h-0.2c-0.3,2.5-0.6,5.1-1,7.7l-2.2,14.4H388z"/>
			<path class="st1" d="M405.5,180.5V143h3.9c5.4,0,10.2,0.5,10.2,9.8c0,7.3-2.5,9.8-9.7,9.8H409v18H405.5z M409,159.4h1.3
				c4.9,0,5.5-1.8,5.6-6.6c0-5.2-1.4-6.6-6.3-6.6H409V159.4z"/>
			<rect x="432.2" y="143" class="st1" width="3.5" height="37.5"/>
			<polygon class="st1" points="462.6,146.2 457,146.2 457,180.5 453.5,180.5 453.5,146.2 447.9,146.2 447.9,143 462.6,143 			"/>
			<polygon class="st1" points="490.3,180.5 486.9,180.5 486.9,161.1 478.2,161.1 478.2,180.5 474.8,180.5 474.8,143 478.2,143 
				478.2,158 486.9,158 486.9,143 490.3,143 			"/>
			<polygon class="st2" points="309,209.8 303.5,209.8 303.5,218.3 308.7,218.3 308.7,220.4 303.5,220.4 303.5,231.9 301.3,231.9 
				301.3,207.8 309,207.8 			"/>
			<path class="st2" d="M321,223.7c0,3.1-0.4,8.5-4.7,8.5s-4.7-5.4-4.7-8.5c0-3.1,0.4-8.4,4.7-8.4S321,220.6,321,223.7 M313.8,223.7
				c0,1.6,0.1,6.5,2.6,6.5s2.6-4.9,2.6-6.5c0-1.6-0.1-6.5-2.6-6.5S313.8,222.1,313.8,223.7"/>
			<path class="st2" d="M325.8,217.7L325.8,217.7c0.5-1.2,1.4-2.5,2.8-2.4v2.4l-0.4,0c-2.1,0-2.4,2.1-2.4,4.7v9.6h-2.1v-16.4h2.1
				V217.7z"/>
			<path class="st2" d="M345.9,231.9h-2.1v-1.3h-0.1c-0.6,0.9-1.5,1.5-2.7,1.5c-2.6,0-3.9-1.5-3.9-8.6c0-3.7,0.1-8.3,4.1-8.3
				c1.2,0,1.9,0.5,2.5,1.4h0.1v-1.1h2.1V231.9z M341.7,216.9c-2.3,0-2.4,3.6-2.4,6.4c0,6.8,1.1,7.1,2.3,7.1c2,0,2.4-1.9,2.4-7
				C344,219.9,343.8,216.9,341.7,216.9"/>
			<path class="st2" d="M356.1,206.3h2.1v10.3h0.1c0.6-0.9,1.4-1.4,2.6-1.4c3.8,0,4.1,4.6,4.1,8.3c0,4.2-0.3,8.6-3.9,8.6
				c-1.2,0-2.1-0.6-2.7-1.5h-0.1v1.3h-2.1V206.3z M362.7,223.4c0-3.7-0.4-6.4-2.4-6.4c-2.5,0-2.3,4.8-2.3,6.3c0,2-0.3,7.2,2.4,7.2
				C362.1,230.5,362.7,229,362.7,223.4"/>
			<path class="st2" d="M369.2,224.1v0.5c0,1.6,0.3,5.6,2.6,5.6c1.8,0,2.1-2.6,2.1-3.9h2.1c0,2.5-1,5.8-4,5.8
				c-4.3,0-4.9-5.1-4.9-8.4c0-2.9,0.6-8.5,4.6-8.5c3.8,0,4.4,5,4.4,7.9v1H369.2z M374,222.4l0-0.3c-0.1-1.6-0.1-4.9-2.3-4.9
				c-2,0-2.4,3.7-2.4,5.2H374z"/>
			<polygon class="st2" points="384.5,217.4 381.8,217.4 381.8,231.9 379.7,231.9 379.7,217.4 378,217.4 378,215.5 379.7,215.5 
				379.7,211 381.8,211 381.8,215.5 384.5,215.5 			"/>
			<polygon class="st2" points="391.6,217.4 388.8,217.4 388.8,231.9 386.8,231.9 386.8,217.4 385,217.4 385,215.5 386.8,215.5 
				386.8,211 388.8,211 388.8,215.5 391.6,215.5 			"/>
			<path class="st2" d="M394.6,224.1v0.5c0,1.6,0.3,5.6,2.6,5.6c1.8,0,2.1-2.6,2.1-3.9h2.1c0,2.5-1,5.8-4,5.8
				c-4.3,0-4.9-5.1-4.9-8.4c0-2.9,0.6-8.5,4.6-8.5c3.8,0,4.4,5,4.4,7.9v1H394.6z M399.4,222.4l0-0.3c-0.1-1.6-0.1-4.9-2.3-4.9
				c-2,0-2.4,3.7-2.4,5.2H399.4z"/>
			<path class="st2" d="M406.3,217.7L406.3,217.7c0.5-1.2,1.4-2.5,2.8-2.4v2.4l-0.4,0c-2.1,0-2.4,2.1-2.4,4.7v9.6h-2.1v-16.4h2.1
				V217.7z"/>
			<path class="st2" d="M428.8,231.9h-2.1l-1.9-11.9c-0.1-0.6-0.1-1.2-0.2-1.8h-0.1c-0.1,1-0.2,2-0.3,3l-1.8,10.7h-2.1l-3.3-16.4
				h2.1l1.6,9.7c0.2,1.2,0.4,2.5,0.7,3.7h0.1c0.2-1.2,0.3-2.5,0.5-3.7l1.6-9.7h2.1l1.7,11.4c0.1,0.7,0.2,1.4,0.3,2h0.1
				c0.2-1.1,0.3-2.1,0.5-3.2l2-10.2h2.1L428.8,231.9z"/>
			<path class="st2" d="M443.5,223.7c0,3.1-0.4,8.5-4.7,8.5c-4.3,0-4.7-5.4-4.7-8.5c0-3.1,0.4-8.4,4.7-8.4
				C443.1,215.2,443.5,220.6,443.5,223.7 M436.2,223.7c0,1.6,0.1,6.5,2.6,6.5c2.5,0,2.6-4.9,2.6-6.5c0-1.6-0.1-6.5-2.6-6.5
				C436.3,217.2,436.2,222.1,436.2,223.7"/>
			<path class="st2" d="M448.3,217.7L448.3,217.7c0.5-1.2,1.4-2.5,2.8-2.4v2.4l-0.4,0c-2.1,0-2.4,2.1-2.4,4.7v9.6h-2.1v-16.4h2.1
				V217.7z"/>
			<rect x="453.1" y="206.3" class="st2" width="2.1" height="25.6"/>
			<path class="st2" d="M464.6,230.6L464.6,230.6c-0.7,0.9-1.6,1.5-2.8,1.5c-3.4,0-3.9-4.2-3.9-8.6s0.4-8.3,4.1-8.3
				c1.2,0,1.9,0.5,2.5,1.4h0.1v-10.3h2.1v25.6h-2.1V230.6z M462.5,216.9c-2.3,0-2.4,4.1-2.4,6.4c0,1.5-0.3,7.1,2.3,7.1
				c2.2,0,2.4-2.7,2.4-7C464.8,219.7,464.4,216.9,462.5,216.9"/>
			<path class="st2" d="M276.2,263.9v-24.1h2.5c3.5,0,6.5,0.3,6.5,6.3c0,4.7-1.6,6.3-6.2,6.3h-0.6v11.6H276.2z M278.4,250.3h0.9
				c3.1,0,3.5-1.2,3.6-4.3c0-3.3-0.9-4.2-4-4.2h-0.4V250.3z"/>
			<path class="st2" d="M296.1,255.7c0,3.1-0.4,8.5-4.7,8.5c-4.3,0-4.7-5.4-4.7-8.5c0-3.1,0.4-8.4,4.7-8.4
				C295.7,247.2,296.1,252.6,296.1,255.7 M288.8,255.7c0,1.6,0.1,6.5,2.6,6.5c2.5,0,2.6-4.9,2.6-6.5c0-1.6-0.1-6.5-2.6-6.5
				C288.9,249.2,288.8,254.1,288.8,255.7"/>
			<path class="st2" d="M300.5,247.5v10.3c0,2.2,0.1,4.4,2.2,4.4c2.1,0,2.2-2.2,2.2-4.4v-10.3h2.1v12.1c0,2.8-1.3,4.6-4.3,4.6
				c-2.9,0-4.3-1.8-4.3-4.6v-12.1H300.5z"/>
			<path class="st2" d="M311.9,249.7L311.9,249.7c0.5-1.2,1.4-2.5,2.8-2.4v2.4l-0.4,0c-2.1,0-2.4,2.1-2.4,4.7v9.6h-2.1v-16.4h2.1
				V249.7z"/>
			<path class="st2" d="M325,247.5v10.3c0,2.2,0.1,4.4,2.2,4.4c2.1,0,2.2-2.2,2.2-4.4v-10.3h2.1v12.1c0,2.8-1.3,4.6-4.3,4.6
				c-2.9,0-4.3-1.8-4.3-4.6v-12.1H325z"/>
			<path class="st2" d="M336.4,248.8c0.8-1,2-1.6,3.2-1.6c2.9,0,3.2,2.7,3.2,4.9v11.7h-2.1v-11.5c0-2-0.1-3.5-1.9-3.5
				c-2.4,0-2.5,2.6-2.5,4.3v10.7h-2.1v-16.4h2.1V248.8z"/>
			<path class="st2" d="M354.5,248.9L354.5,248.9c0.8-1,1.9-1.6,3.2-1.6c1.3,0,2.5,0.7,3,2c0.9-1.2,1.9-2,3.4-2
				c3.1,0,3.3,2.4,3.3,4.9v11.8h-2.1v-11.7c0-1.6-0.2-3.2-1.9-3.2c-2.5,0-2.5,2.8-2.5,4.9v10.1h-2.1v-11.7c0-1.5-0.1-3.3-1.8-3.3
				c-2.5,0-2.6,3.1-2.6,5.2v9.8h-2.1v-16.4h2.1V248.9z"/>
			<path class="st2" d="M379.2,255.7c0,3.1-0.4,8.5-4.7,8.5c-4.3,0-4.7-5.4-4.7-8.5c0-3.1,0.4-8.4,4.7-8.4
				C378.8,247.2,379.2,252.6,379.2,255.7 M372,255.7c0,1.6,0.1,6.5,2.6,6.5c2.5,0,2.6-4.9,2.6-6.5c0-1.6-0.1-6.5-2.6-6.5
				C372,249.2,372,254.1,372,255.7"/>
			<path class="st2" d="M383.8,248.8c0.8-1,2-1.6,3.2-1.6c2.9,0,3.2,2.7,3.2,4.9v11.7h-2.1v-11.5c0-2-0.1-3.5-1.9-3.5
				c-2.4,0-2.5,2.6-2.5,4.3v10.7h-2.1v-16.4h2.1V248.8z"/>
			<path class="st2" d="M399.3,262.6L399.3,262.6c-0.7,0.9-1.6,1.5-2.8,1.5c-3.4,0-3.9-4.2-3.9-8.6c0-4.5,0.4-8.3,4.1-8.3
				c1.2,0,1.9,0.5,2.5,1.4h0.1v-10.3h2.1v25.6h-2.1V262.6z M397.2,248.9c-2.3,0-2.4,4.1-2.4,6.4c0,1.5-0.3,7.1,2.3,7.1
				c2.2,0,2.4-2.7,2.4-7C399.5,251.7,399.1,248.9,397.2,248.9"/>
			<path class="st2" d="M405.9,256.1v0.5c0,1.6,0.3,5.6,2.6,5.6c1.8,0,2.1-2.6,2.1-3.9h2.1c0,2.5-1,5.8-4,5.8
				c-4.3,0-4.9-5.1-4.9-8.4c0-2.9,0.6-8.5,4.6-8.5c3.8,0,4.4,5,4.4,7.9v1H405.9z M410.7,254.4l0-0.3c-0.1-1.6-0.1-4.9-2.3-4.9
				c-2,0-2.4,3.7-2.4,5.2H410.7z"/>
			<path class="st2" d="M424,248.9L424,248.9c0.8-1,1.9-1.6,3.2-1.6c1.3,0,2.5,0.7,3,2c0.9-1.2,1.9-2,3.4-2c3.1,0,3.3,2.4,3.3,4.9
				v11.8h-2.1v-11.7c0-1.6-0.2-3.2-1.9-3.2c-2.5,0-2.5,2.8-2.5,4.9v10.1h-2.1v-11.7c0-1.5-0.1-3.3-1.8-3.3c-2.5,0-2.6,3.1-2.6,5.2
				v9.8H422v-16.4h2.1V248.9z"/>
			<path class="st2" d="M441.5,256.1v0.5c0,1.6,0.3,5.6,2.6,5.6c1.8,0,2.1-2.6,2.1-3.9h2.1c0,2.5-1,5.8-4,5.8
				c-4.3,0-4.9-5.1-4.9-8.4c0-2.9,0.6-8.5,4.6-8.5c3.8,0,4.4,5,4.4,7.9v1H441.5z M446.3,254.4l0-0.3c-0.1-1.6-0.1-4.9-2.3-4.9
				c-2,0-2.4,3.7-2.4,5.2H446.3z"/>
			<path class="st2" d="M451.9,244.2c-0.9,0-1.6-0.7-1.6-1.6c0-0.8,0.7-1.5,1.6-1.5c0.8,0,1.5,0.7,1.5,1.5
				C453.5,243.5,452.8,244.2,451.9,244.2 M453,263.9h-2.1v-16.4h2.1V263.9z"/>
			<rect x="455.9" y="238.3" class="st2" width="2.1" height="25.6"/>
			<rect x="460.9" y="238.3" class="st2" width="2.1" height="25.6"/>
			<path class="st2" d="M467.5,256.1v0.5c0,1.6,0.3,5.6,2.6,5.6c1.8,0,2.1-2.6,2.1-3.9h2.1c0,2.5-1,5.8-4,5.8
				c-4.3,0-4.9-5.1-4.9-8.4c0-2.9,0.6-8.5,4.6-8.5c3.8,0,4.4,5,4.4,7.9v1H467.5z M472.3,254.4l0-0.3c-0.1-1.6-0.1-4.9-2.3-4.9
				c-2,0-2.4,3.7-2.4,5.2H472.3z"/>
			<path class="st2" d="M478.8,247.5v10.3c0,2.2,0.1,4.4,2.2,4.4c2.1,0,2.2-2.2,2.2-4.4v-10.3h2.1v12.1c0,2.8-1.3,4.6-4.3,4.6
				c-2.9,0-4.3-1.8-4.3-4.6v-12.1H478.8z"/>
			<path class="st2" d="M490.2,249.7L490.2,249.7c0.5-1.2,1.4-2.5,2.8-2.4v2.4l-0.4,0c-2.1,0-2.4,2.1-2.4,4.7v9.6h-2.1v-16.4h2.1
				V249.7z"/>
			<line class="st3" x1="274.4" y1="197.7" x2="493" y2="197.7"/>
			<line class="st3" x1="274.4" y1="272.8" x2="493" y2="272.8"/>
		</g>
	</g>
</g>
<g>
	<g>
		<defs>
			<rect id="SVGID_5_" x="-78.2" y="-11.7" width="407.7" height="370"/>
		</defs>
		<clipPath id="SVGID_6_">
			<use xlink:href="#SVGID_5_"  style="overflow:visible;"/>
		</clipPath>
		<g class="st4">
			<defs>
				<rect id="SVGID_7_" x="-78.2" y="-11.7" width="407.7" height="370"/>
			</defs>
			<clipPath id="SVGID_8_">
				<use xlink:href="#SVGID_7_"  style="overflow:visible;"/>
			</clipPath>
			<path class="st5" d="M222.5,270.2c-0.3-0.2-36.1-23.9-44.4-29.2l24.7,18.2c-28.3-2.1-68.1-18.3-78.9,8.1
				c-10.8-26.4-50.5-10.1-78.9-8.1l24.6-18.2c-8.4,5.3-44.1,28.9-44.4,29.2c-0.4,0.2,0.1,1.1,2,1.3c3.4,0.5,58.9-6.9,68.9-6.9
				c12.6,0,14.2,5.2,17.5,6.1c3.1,0.8,7.7-0.4,10.1-0.4c2.5,0,7.1,1.3,10.1,0.4c3.4-0.9,4.9-6.1,17.5-6.1c10,0,65.5,7.4,68.9,6.9
				C222.4,271.3,222.9,270.5,222.5,270.2"/>
			<path class="st5" d="M214.4,154.4c0.7,1,1.2,2,1.5,3.1c-0.2-0.3-0.4-0.7-0.6-1c-3.3-4.4-9.5-5.3-13.9-2c-3.9,2.9-5,8.2-2.9,12.4
				c-0.1-0.1-0.2-0.2-0.4-0.4c-3.4-4.5-2.5-10.8,2-14.2C204.7,149,211,149.9,214.4,154.4"/>
			<path class="st5" d="M213.5,146.6L213.5,146.6c-1.2,0-2.4-0.6-3.1-1.5c-1.3-1.7-0.9-4.1,0.8-5.4c1.6-1.2,4.2-0.9,5.4,0.8
				c0.6,0.8,0.9,1.8,0.7,2.8c-0.1,1-0.7,1.9-1.5,2.5C215.1,146.3,214.3,146.6,213.5,146.6"/>
			<path class="st6" d="M215.9,113.4c-8.2,7-7.2,13.3-4.9,15.1c1.6-2.2,3.8-5.8,5-10.3c1,2.5-1.2,7.1-4.5,10.6
				c0.2,0.1,0.3,0.1,0.5,0.2c2.8,0.7,6-2.2,7.1-6.5C220.2,118.2,218.1,111.5,215.9,113.4"/>
			<path class="st6" d="M232.8,163.5c-10.6,2.1-14.9-2.6-14.9-5.5c2.7,0.1,6.9,0.5,11.2,2.4c-1.3-2.3-6.3-3.5-11.1-3
				c0-0.2,0.1-0.3,0.1-0.5c1.2-2.7,5.4-3.4,9.5-1.6C231.6,157.3,235.6,163,232.8,163.5"/>
			<path class="st6" d="M243.7,136c-11.7,10.5-20.6,7.9-22.8,4.2c3.4-1.9,9.1-4.5,15.8-5.3c-3.4-2-10.5,0.3-16.2,4.6
				c-0.1-0.2-0.2-0.5-0.2-0.7c-0.5-4.2,4.3-8.3,10.8-9C237.5,129,246.8,133.2,243.7,136"/>
			<path class="st7" d="M95.9,230c2.4-3.7-15,8-16.1,8.6c-1.1,0.6,4.3,3.6,6.7,2.1C91.3,237.5,93.9,233,95.9,230"/>
			<path class="st7" d="M101.9,226.1c-6.6,15.5-13.9,18.3-11.8,19.1c4.6,1.7,22.3-3.6,21.8-5.4C111.4,237.9,103.3,223,101.9,226.1"
				/>
			<path class="st7" d="M110.2,216c0.8,5.7,11.7,23.5,36.9,30.9c23.1,6.8-31.7,0.6-41.4-24.6C104.5,219.2,110,214.3,110.2,216"/>
			<path class="st7" d="M127.9,170.1c-8.3,10.5,1.3,35.6,13.2,46.9c8.4,7.9-6.4-40.1,12.1-43.9c38.2-7.8,53.8-29.6,56.7-42.3
				C185.6,169.1,136,159.8,127.9,170.1"/>
			<path class="st7" d="M49.8,159.2c-0.1,0-0.2,0-0.3-0.1c-0.2-0.1-0.2-0.4-0.1-0.5c2.4-3.9,1.7-9-1.7-12.1c-1.7-1.5-4-2.4-6.3-2.4
				c-2.7,0-5.3,1.2-7.1,3.2c-0.2,0.2-0.3,0.4-0.5,0.6l-0.2,0.3c-0.1,0.2-0.3,0.2-0.5,0.1c-0.2-0.1-0.3-0.3-0.2-0.5
				c0.5-1.2,1.1-2.2,1.9-3.1c2-2.3,4.9-3.5,7.9-3.5c2.6,0,5,0.9,7,2.6c2.1,1.9,3.3,4.4,3.5,7.2c0.2,2.8-0.8,5.5-2.7,7.6
				c-0.1,0.1-0.2,0.2-0.3,0.2c0,0-0.1,0.1-0.1,0.1C50,159.2,49.9,159.2,49.8,159.2"/>
			<path class="st7" d="M36.9,139.6c-0.9,0-1.8-0.3-2.6-1c-0.8-0.7-1.2-1.6-1.3-2.6c-0.1-1,0.3-2,1-2.8c1.4-1.5,3.9-1.7,5.4-0.3
				c0.8,0.7,1.2,1.6,1.3,2.6c0.1,1-0.3,2-1,2.8C39,139.1,38,139.6,36.9,139.6"/>
			<path class="st8" d="M36.9,106.3c7.5,7.7,6,13.9,3.6,15.5c-1.4-2.3-3.3-6.1-4.1-10.7c-1.2,2.4,0.6,7.2,3.6,10.9
				c-0.2,0.1-0.3,0.1-0.5,0.1c-2.9,0.5-5.8-2.7-6.5-7.1C32.3,110.7,34.9,104.2,36.9,106.3"/>
			<path class="st8" d="M16,152.6c10.3,3,15.1-1.3,15.4-4.2c-2.7-0.1-6.9-0.1-11.4,1.5c1.5-2.2,6.6-2.9,11.4-2
				c0-0.2-0.1-0.3-0.1-0.5c-0.9-2.8-5.1-3.8-9.3-2.4C17.7,146.4,13.2,151.8,16,152.6"/>
			<path class="st8" d="M7.4,126.5c10.8,11.5,19.9,9.6,22.4,6.1c-3.2-2.2-8.7-5.2-15.3-6.6c3.5-1.7,10.5,1.2,15.7,5.9
				c0.1-0.2,0.2-0.5,0.2-0.7c0.9-4.2-3.6-8.6-10-9.9C14.1,120,4.5,123.4,7.4,126.5"/>
			<path class="st9" d="M169.1,134.8L169.1,134.8c-2.2,0.2-4.3-0.1-6.4-0.8c-0.2-0.1-0.3-0.1-0.5-0.2c-0.1,0-0.2-0.1-0.3-0.1
				c-0.3-0.1-0.4-0.4-0.3-0.6c0.1-0.3,0.3-0.4,0.6-0.4c1.1,0.2,2.3,0.2,3.4,0.1c5.7-0.5,10.5-4.2,12.3-9.6c2.5-7.4-1.5-15.6-9-18.1
				c-0.4-0.1-0.8-0.2-1.1-0.3l-0.5-0.1c-0.3-0.1-0.4-0.3-0.4-0.6c0-0.3,0.2-0.5,0.5-0.5c1.9,0,3.7,0.2,5.3,0.8
				c8.2,2.8,12.6,11.7,9.8,19.9C180.6,130.2,175.3,134.3,169.1,134.8"/>
			<path class="st9" d="M166.1,148.1c-0.2,0-0.4-0.1-0.5-0.3c-0.1-0.2-0.1-0.5,0.1-0.7c1-0.7,1.9-1.4,2.9-2.1
				c5.4-3.8,11-7.7,14.1-14.2c0.6-1.2,1.1-2.6,1.7-4.3c2.5-6.9,6.4-17.4,20.2-25.7c0.2-0.1,0.5-0.1,0.7,0.1c0.2,0.2,0.1,0.5,0,0.7
				c-10.4,10.5-13.5,19.3-16.1,26.3c-1,2.9-1.9,5.3-3.1,7.4c-2.9,5-9.3,7.9-16.8,11.2c-1,0.4-2,0.9-3.1,1.4
				C166.2,148.1,166.2,148.1,166.1,148.1"/>
			<path class="st9" d="M186.9,107.1c-0.7,0.1-1.4,0-2.1-0.3c-1.3-0.4-2.3-1.4-2.9-2.6c-0.6-1.2-0.7-2.6-0.3-3.9
				c0.7-1.9,2.4-3.3,4.4-3.5c0.7-0.1,1.4,0,2.1,0.3c1.3,0.4,2.4,1.4,3,2.6c0.6,1.2,0.7,2.6,0.3,3.9
				C190.6,105.5,188.9,106.9,186.9,107.1"/>
			<path class="st10" d="M227.1,84.8c-6.2,14.9-15.6,16.4-19.3,13.9c2.3-3.2,6.4-8.1,12.4-11.8c-4-0.3-9.6,4.9-13,11.4
				c-0.2-0.2-0.3-0.4-0.5-0.6c-2.3-3.7,0.4-9.5,6-13.1C218.3,81,228.8,80.8,227.1,84.8"/>
			<path class="st10" d="M151.1,83c1.9,16,10.5,20,14.7,18.7c-1.4-3.8-3.9-9.6-8.6-14.8c3.9,0.8,7.9,7.4,9.4,14.5
				c0.2-0.1,0.4-0.3,0.6-0.4c3.2-2.9,2.3-9.3-2.2-14.2C160.5,81.8,150.6,78.7,151.1,83"/>
			<path class="st10" d="M182,55.9c-9.5,21.5-1.7,33,4.6,34.5c1.1-5.7,2.2-15,0.2-25c4.4,3.9,4.4,15.1,1,25.1c0.4,0,0.8,0,1.1-0.1
				c6.2-1.2,9.8-10,7.9-19.5C194.8,61.3,184.6,50,182,55.9"/>
			<path class="st9" d="M81.9,129.2c-6.1-0.9-11.1-5.4-12.7-11.4c-2.2-8.3,2.8-16.9,11.1-19.1c1.7-0.4,3.5-0.6,5.4-0.4
				c0.3,0,0.5,0.2,0.5,0.5c0,0.3-0.2,0.5-0.5,0.6l-0.5,0.1c-0.4,0-0.7,0.1-1.1,0.2c-7.6,2-12.2,9.8-10.2,17.4
				c1.4,5.4,6,9.5,11.6,10.4c1.1,0.2,2.3,0.2,3.4,0.1c0.3,0,0.5,0.2,0.6,0.4c0.1,0.3-0.1,0.5-0.4,0.6c-0.1,0-0.2,0.1-0.3,0.1
				c-0.2,0.1-0.3,0.1-0.5,0.2C86.2,129.4,84.1,129.5,81.9,129.2"/>
			<path class="st9" d="M84,142.6c-0.1,0-0.1,0-0.2-0.1c-1-0.5-2-1.1-3-1.6c-7.2-3.8-13.4-7.1-15.9-12.3c-1.1-2.2-1.8-4.7-2.6-7.6
				c-2-7.2-4.5-16.1-14.2-27.3c-0.2-0.2-0.2-0.5,0-0.7c0.2-0.2,0.5-0.2,0.7-0.1c13.2,9.2,16.3,19.9,18.4,27c0.5,1.7,0.9,3.1,1.4,4.3
				c2.6,6.7,7.9,10.9,13.1,15.1c0.9,0.7,1.8,1.5,2.8,2.2c0.2,0.2,0.3,0.5,0.1,0.7C84.4,142.6,84.2,142.6,84,142.6"/>
			<path class="st9" d="M66.1,100.3L66.1,100.3c-2-0.3-3.6-1.8-4.2-3.7c-0.7-2.7,0.9-5.6,3.6-6.3c0.7-0.2,1.4-0.2,2.1-0.1
				c2,0.3,3.7,1.8,4.2,3.8c0.4,1.3,0.2,2.7-0.5,3.9c-0.7,1.2-1.8,2-3.1,2.4C67.5,100.4,66.8,100.4,66.1,100.3"/>
			<path class="st10" d="M27.6,75.4C32.7,90.7,42,92.8,45.9,90.6C43.7,87.3,40,82.1,34.3,78c4-0.1,9.2,5.6,12.2,12.2
				c0.2-0.2,0.4-0.4,0.5-0.6c2.6-3.5,0.3-9.5-5.1-13.4C36.6,72.3,26.2,71.3,27.6,75.4"/>
			<path class="st10" d="M103.4,78.8c-3,15.8-11.9,19.2-15.9,17.6c1.6-3.7,4.6-9.3,9.6-14.1c-4,0.5-8.3,6.8-10.3,13.8
				c-0.2-0.1-0.4-0.3-0.6-0.5c-3-3.1-1.6-9.4,3.1-14C94.1,76.9,104.2,74.5,103.4,78.8"/>
			<path class="st10" d="M74.4,49.6c8,22.1-0.6,33-6.9,34c-0.7-5.8-1.2-15.1,1.5-24.9c-4.6,3.6-5.4,14.8-2.7,25
				c-0.4,0-0.8-0.1-1.1-0.2c-6.1-1.7-9-10.6-6.5-20C61.3,54.2,72.3,43.7,74.4,49.6"/>
			<path class="st7" d="M113.1,163.4L113.1,163.4c-0.5,0-1,0-1.5-0.1c-0.1,0-0.2,0-0.3-0.1c-0.1,0-0.1,0-0.2-0.1
				c-0.1,0-0.2-0.2-0.2-0.3c0-0.1,0.1-0.3,0.3-0.3c4.5-0.1,8.2-3.4,8.9-7.8c0.7-5-2.8-9.7-7.8-10.5c-0.3,0-0.5,0-0.8,0l-0.3,0
				c-0.1,0-0.3-0.1-0.3-0.3c0-0.1,0.1-0.3,0.2-0.3c1.2-0.2,2.3-0.3,3.4-0.1c5.5,0.8,9.3,5.9,8.5,11.3
				C122.2,159.8,118,163.4,113.1,163.4"/>
			<path class="st7" d="M115.3,171.8c-0.1,0-0.2,0-0.2-0.1c-0.1-0.1-0.1-0.3,0-0.4c0.5-0.5,1.1-1.1,1.6-1.6c3-3,6.1-6.2,7.2-10.6
				c0.2-0.8,0.4-1.8,0.6-2.9c0.8-4.7,2-11.7,9.7-18.5c0.1-0.1,0.3-0.1,0.4,0c0.1,0.1,0.1,0.2,0,0.4c-5.4,7.8-6.3,13.7-7.1,18.5
				c-0.3,1.9-0.6,3.6-1.1,5c-1.2,3.5-4.9,6-9.2,9c-0.6,0.4-1.2,0.8-1.8,1.2C115.4,171.8,115.3,171.8,115.3,171.8"/>
			<path class="st7" d="M122.8,143.6c-0.2,0-0.3,0-0.5,0c-1.8-0.3-3-1.9-2.7-3.7c0.3-1.7,1.9-3,3.7-2.7c1.8,0.3,3,1.9,2.7,3.7
				C125.8,142.4,124.4,143.6,122.8,143.6"/>
			<path class="st8" d="M146.5,124.8c-2.2,10.1-8,12.1-10.6,11c1.1-2.3,3.1-5.9,6.4-8.9c-2.6,0.3-5.5,4.2-6.9,8.7
				c-0.1-0.1-0.3-0.2-0.4-0.3c-1.9-2-0.9-6.1,2.3-9C140.5,123.5,147.1,122.1,146.5,124.8"/>
			<path class="st8" d="M98.3,132.5c3.1,9.9,9,11.4,11.5,10.1c-1.3-2.2-3.6-5.6-7.2-8.3c2.6,0,5.8,3.7,7.6,8
				c0.1-0.1,0.2-0.2,0.3-0.3c1.7-2.2,0.4-6.1-3-8.7C104.1,130.7,97.5,129.9,98.3,132.5"/>
			<path class="st8" d="M114.7,111.8c-3.5,14.7,2.8,21,6.9,21.2c0-3.7-0.4-9.7-2.8-15.8c3.2,2,4.5,9,3.5,15.7c0.2,0,0.5-0.1,0.7-0.2
				c3.8-1.5,5-7.4,2.7-13.2C123.4,113.8,115.6,107.9,114.7,111.8"/>
			<path class="st5" d="M141.6,98.6c-9.1,0-17-6.8-18.3-15.7c-1.5-10,5.6-19.4,15.7-20.9c2-0.3,4.1-0.2,6.3,0.2
				c0.4,0.1,0.6,0.4,0.6,0.8c0,0.4-0.4,0.7-0.7,0.7l-0.6,0c-0.4,0-0.9,0-1.3,0.1c-9.1,1.3-15.4,9.8-14.1,18.8
				c1.2,7.9,7.9,13.8,15.9,14.1c0.4,0,0.7,0.3,0.7,0.7c0,0.4-0.2,0.7-0.6,0.8c-0.1,0-0.2,0.1-0.3,0.1c-0.2,0.1-0.4,0.1-0.6,0.1
				C143.5,98.5,142.5,98.6,141.6,98.6"/>
			<path class="st5" d="M137.6,113.9c-0.2,0-0.3,0-0.4-0.1c-1.1-0.8-2.2-1.5-3.2-2.2c-7.9-5.4-14.7-10.1-16.9-16.5
				c-1-2.7-1.4-5.7-2-9.2c-1.4-8.6-3.1-19.4-12.9-33.6c-0.2-0.3-0.2-0.8,0.1-1c0.3-0.3,0.7-0.3,1,0c14.2,12.5,16.4,25.4,17.8,33.9
				c0.3,2,0.6,3.7,1,5.2c2.1,8.1,7.7,13.8,13.1,19.3c1,1,1.9,2,2.9,3c0.3,0.3,0.3,0.7,0,1C138,113.8,137.8,113.9,137.6,113.9"/>
			<path class="st5" d="M123.8,62.4c-3,0-5.6-2.3-6.1-5.2c-0.2-1.6,0.2-3.2,1.2-4.6c1-1.3,2.4-2.2,4-2.4c3.4-0.5,6.5,1.9,7,5.2
				c0.2,1.6-0.2,3.2-1.2,4.6c-1,1.3-2.4,2.2-4,2.4C124.4,62.4,124.1,62.4,123.8,62.4"/>
			<path class="st6" d="M80.7,28c4,18.4,14.5,22.2,19.2,20.1c-2-4.2-5.7-10.7-11.7-16.3c4.7,0.5,10,7.7,12.5,15.8
				c0.3-0.2,0.5-0.4,0.7-0.6c3.5-3.7,1.6-11.1-4.1-16.3C91.6,25.5,79.6,23,80.7,28"/>
			<path class="st6" d="M168.6,42c-5.6,18-16.4,20.8-20.9,18.4c2.4-4,6.6-10.2,13.1-15.2c-4.7,0.1-10.6,6.8-13.8,14.7
				c-0.2-0.2-0.4-0.4-0.6-0.6c-3.1-4-0.7-11.2,5.5-15.9C157.9,38.6,170.1,37.1,168.6,42"/>
			<path class="st6" d="M138.7,4.2c6.4,26.8-5.1,38.3-12.6,38.7c0-6.8,0.7-17.7,5.1-28.8c-5.9,3.6-8.2,16.5-6.5,28.7
				c-0.4-0.1-0.9-0.2-1.3-0.3c-6.9-2.7-9.1-13.5-4.9-24.1C122.8,7.8,137-3,138.7,4.2"/>
			<path class="st5" d="M126.7,202.5c-15-31-22.3-40.6-45.2-49.2c-14.5-5.5-28.6-9.8-39-27.4c0,11.3,15.3,22.5,23.9,27.7
				c14.5,8.8,35.9,19.3,41,44.8c7.6,37.9,39.7,48.5,75.7,51.6C188.2,250.5,144.8,239.8,126.7,202.5"/>
		</g>
	</g>
</g>
</svg>
