<?xml version="1.0" encoding="iso-8859-1"?>
<!-- Generator: Adobe Illustrator 19.0.0, SVG Export Plug-In . SVG Version: 6.00 Build 0)  -->
<svg version="1.1" id="Capa_1" xmlns="http://www.w3.org/2000/svg" xmlns:xlink="http://www.w3.org/1999/xlink" x="0px" y="0px"
	 viewBox="0 0 512 512" style="enable-background:new 0 0 512 512;" xml:space="preserve">
<g>
	<g>
		<path d="M329.85,152.937c-1.86-1.86-4.43-2.93-7.07-2.93c-2.63,0-5.21,1.069-7.07,2.93c-1.859,1.86-2.93,4.44-2.93,7.07
			s1.07,5.21,2.93,7.069c1.86,1.86,4.44,2.931,7.07,2.931c2.64,0,5.21-1.07,7.07-2.931c1.859-1.859,2.93-4.439,2.93-7.069
			S331.71,154.797,329.85,152.937z"/>
	</g>
</g>
<g>
	<g>
		<path d="M486.036,206.398c-0.287-16.826-2.949-33.436-7.91-49.365c-1.302-4.18-5.171-7.026-9.547-7.026H360.979
			c-5.522,0-9.999,4.478-9.999,9.999c0,5.522,4.478,9.999,9.999,9.999h100.06c3.108,11.945,4.788,24.27,5,36.733
			c0.59,34.746-10.422,75.01-28.738,105.077c-17.672,29.008-25.461,63.539-21.93,97.232l8.689,82.938H293.953v-27.926
			c0-15.87-6.194-30.777-17.44-41.976c-11.184-11.135-26.012-17.258-41.784-17.258c-0.177,0.001-0.355,0.003-0.534,0.002
			c-15.978,0-30.984-6.228-42.276-17.55c-11.354-11.387-17.544-26.513-17.429-42.594l0.234-32.553
			c0.019-2.665-1.026-5.227-2.903-7.118c-1.878-1.891-4.432-2.954-7.097-2.954h-34.439c10.318-25.263,26.244-70.337,26.244-92.627
			c0-13.376,1.705-26.606,5.074-39.431h122.879c5.522,0,9.999-4.478,9.999-9.999s-4.478-9.999-9.999-9.999h-130.4
			c-4.368,0-8.231,2.836-9.539,7.004c-5.317,16.926-8.013,34.564-8.013,52.426c0,21.838-21.185,78.979-30.501,98.278
			c-1.496,3.1-1.293,6.749,0.536,9.663c1.829,2.914,5.028,4.684,8.47,4.684h39.618l-0.162,22.482
			c-0.153,21.466,8.108,41.658,23.267,56.858c15.073,15.115,35.102,23.428,56.435,23.428c0.178-0.001,0.354-0.003,0.533-0.002
			c10.445,0,20.269,4.056,27.676,11.431c7.45,7.417,11.552,17.291,11.552,27.803v37.926c0,5.522,4.478,9.999,9.999,9.999h151.21
			c2.834,0,5.534-1.202,7.431-3.308s2.811-4.916,2.515-7.734l-9.847-93.979c-3.076-29.36,3.714-59.456,19.119-84.744
			C474.862,288.598,486.696,245.299,486.036,206.398z"/>
	</g>
</g>
<g>
	<g>
		<path d="M401.713,0.016c-17.137,0-31.079,13.942-31.079,31.079c0,5.523,4.478,9.999,9.999,9.999s9.999-4.478,9.999-9.999
			c0-6.11,4.971-11.08,11.08-11.08s11.08,4.971,11.08,11.08s-4.971,11.081-11.08,11.081c-5.522,0-9.999,4.478-9.999,9.999v6.337
			c0,5.522,4.478,9.999,9.999,9.999c4.808,0,8.821-3.393,9.781-7.914c12.358-4.108,21.298-15.781,21.298-29.503
			C432.792,13.958,418.85,0.016,401.713,0.016z"/>
	</g>
</g>
<g>
	<g>
		<path d="M408.785,81.661c-1.859-1.86-4.439-2.92-7.069-2.92c-2.631,0-5.211,1.061-7.07,2.92c-1.86,1.87-2.93,4.44-2.93,7.08
			c0,2.63,1.069,5.21,2.93,7.07c1.859,1.86,4.439,2.93,7.07,2.93c2.63,0,5.199-1.069,7.069-2.93c1.86-1.86,2.931-4.44,2.931-7.07
			C411.716,86.101,410.646,83.531,408.785,81.661z"/>
	</g>
</g>
<g>
	<g>
		<path d="M153.289,74.112c3.905-3.905,3.905-10.236,0-14.142L96.262,2.945c-3.906-3.904-10.235-3.904-14.142,0L52.665,32.401
			c-3.719,3.719-6.085,8.429-6.854,13.534c-5.106,0.769-9.816,3.135-13.534,6.854L2.929,82.136c-3.905,3.905-3.905,10.236,0,14.142
			l57.026,57.026c1.953,1.952,4.512,2.929,7.071,2.929s5.118-0.977,7.071-2.929l29.348-29.349c1.106-1.105,2.397-1.271,3.068-1.271
			c0.673,0.001,1.964,0.166,3.07,1.272c3.906,3.904,10.235,3.904,14.142,0c0.018-0.018,0.033-0.039,0.052-0.057
			c0.019-0.018,0.039-0.033,0.057-0.052c1.952-1.953,2.929-4.512,2.929-7.071s-0.977-5.118-2.929-7.071
			c-1.106-1.106-1.271-2.397-1.271-3.069c0-0.671,0.165-1.962,1.271-3.068L153.289,74.112z M89.302,109.814l-22.277,22.277
			L24.141,89.206l22.277-22.278c1.106-1.105,2.397-1.271,3.068-1.271c0.672,0,1.963,0.165,3.069,1.271l40.087,40.087
			C91.46,107.839,90.342,108.774,89.302,109.814z M109.691,89.426c-1.041,1.04-1.976,2.158-2.799,3.34L66.806,52.68
			c-1.106-1.106-1.271-2.397-1.271-3.069c-0.001-0.671,0.164-1.962,1.271-3.069l22.386-22.386l42.884,42.884L109.691,89.426z"/>
	</g>
</g>
<g>
	<g>
		<path d="M358.363,98.778h-8.046v-8.046c0-5.522-4.478-9.999-9.999-9.999c-5.522,0-9.999,4.478-9.999,9.999v8.046h-8.046
			c-5.522,0-9.999,4.478-9.999,9.999s4.478,9.999,9.999,9.999h8.046v8.046c0,5.522,4.478,9.999,9.999,9.999
			c5.522,0,9.999-4.478,9.999-9.999v-8.046h8.046c5.522,0,9.999-4.478,9.999-9.999S363.884,98.778,358.363,98.778z"/>
	</g>
</g>
<g>
	<g>
		<path d="M483.001,47.135c-15.989,0-28.998,13.009-28.998,28.998c0,15.989,13.009,28.998,28.998,28.998
			c15.989,0,28.998-13.009,28.998-28.998C512,60.144,498.99,47.135,483.001,47.135z M483.001,85.133c-4.963,0-8.999-4.037-8.999-9
			s4.037-8.999,8.999-8.999c4.963,0,9,4.037,9,8.999S487.963,85.133,483.001,85.133z"/>
	</g>
</g>
<g>
	<g>
		<path d="M307.808,0.783c-3.73-1.553-8.027-0.705-10.891,2.143L279.507,20.24c-3.916,3.896-3.934,10.226-0.038,14.142
			c3.895,3.914,10.225,3.933,14.141,0.037l0.358-0.356v29.949c0,5.522,4.478,9.999,9.999,9.999c5.522,0,9.999-4.478,9.999-9.999
			V10.015C313.967,5.975,311.536,2.333,307.808,0.783z"/>
	</g>
</g>
<g>
	<g>
		<path d="M222.987,33.045c-28.143,0-51.039,22.896-51.039,51.039s22.897,51.038,51.039,51.038
			c28.143,0,51.039-22.895,51.039-51.038S251.13,33.045,222.987,33.045z M222.987,115.123c-17.115,0-31.04-13.924-31.04-31.039
			s13.925-31.04,31.04-31.04s31.04,13.925,31.04,31.04S240.102,115.123,222.987,115.123z"/>
	</g>
</g>
<g>
	<g>
		<path d="M232.986,74.763v-8.882c0-5.522-4.478-9.999-9.999-9.999s-9.999,4.478-9.999,9.999v18.202
			c0,5.523,4.478,9.999,9.999,9.999h6.371c5.522,0,9.999-4.478,9.999-9.999C239.357,79.841,236.714,76.216,232.986,74.763z"/>
	</g>
</g>
<g>
	<g>
		<path d="M437.905,206.399c-0.094-5.465-4.552-9.829-9.995-9.829c-0.057,0-0.115,0-0.173,0.001
			c-5.522,0.095-9.922,4.647-9.828,10.168c0.38,22.296-5.319,47.496-16.479,72.876c-2.223,5.056,0.073,10.955,5.128,13.179
			c1.31,0.575,2.676,0.849,4.021,0.849c3.845,0,7.512-2.231,9.159-5.978C432.049,259.661,438.333,231.561,437.905,206.399z"/>
	</g>
</g>
<g>
	<g>
		<path d="M400.066,305.177c-4.723-2.863-10.871-1.355-13.734,3.369l-0.176,0.289c-2.862,4.723-1.354,10.871,3.369,13.733
			c1.62,0.982,3.407,1.449,5.173,1.449c3.382,0,6.681-1.715,8.561-4.818l0.176-0.289
			C406.297,314.187,404.789,308.039,400.066,305.177z"/>
	</g>
</g>
<g>
</g>
<g>
</g>
<g>
</g>
<g>
</g>
<g>
</g>
<g>
</g>
<g>
</g>
<g>
</g>
<g>
</g>
<g>
</g>
<g>
</g>
<g>
</g>
<g>
</g>
<g>
</g>
<g>
</g>
</svg>
