<?xml version="1.0" encoding="utf-8"?>
<!-- Generator: Adobe Illustrator 22.0.0, SVG Export Plug-In . SVG Version: 6.00 Build 0)  -->
<svg version="1.1" id="_x33_" xmlns="http://www.w3.org/2000/svg" xmlns:xlink="http://www.w3.org/1999/xlink" x="0px" y="0px"
	 viewBox="0 0 116 131.7" style="enable-background:new 0 0 116 131.7;" xml:space="preserve">
<style type="text/css">
	.st0{fill:#003DA6;}
	.st1{fill-rule:evenodd;clip-rule:evenodd;fill:#003DA6;}
	.st2{fill:#00B2E3;}
	.st3{fill-rule:evenodd;clip-rule:evenodd;fill:#00B2E3;}
	.st4{fill:#FFB71B;}
	.st5{fill-rule:evenodd;clip-rule:evenodd;fill:#FFB71B;}
</style>
<g>
	<path class="st0" d="M105.1,130.7c-0.2-0.1-17.5-11.6-21.6-14.2l12,8.9c-13.8-1-33.1-8.9-38.4,3.9c-5.3-12.8-24.6-4.9-38.4-3.9
		l12-8.8c-4.1,2.6-21.4,14.1-21.6,14.2c-0.2,0.1,0,0.5,1,0.7c1.7,0.2,28.7-3.4,33.5-3.4c6.1,0,6.9,2.5,8.5,3
		c1.5,0.4,3.7-0.2,4.9-0.2c1.2,0,3.4,0.6,4.9,0.2c1.6-0.5,2.4-3,8.5-3c4.9,0,31.9,3.6,33.5,3.4C105,131.3,105.3,130.8,105.1,130.7z"
		/>
	<g>
		<g>
			<g>
				<path class="st0" d="M101.1,74.4c0.4,0.5,0.6,1,0.8,1.5c-0.1-0.2-0.2-0.3-0.3-0.5c-1.6-2.1-4.6-2.6-6.7-1c-1.9,1.4-2.4,4-1.4,6
					c-0.1-0.1-0.1-0.1-0.2-0.2c-1.6-2.2-1.2-5.3,1-6.9C96.4,71.7,99.5,72.2,101.1,74.4z"/>
			</g>
			<g>
				<path class="st0" d="M100.7,70.6L100.7,70.6c-0.6,0-1.1-0.3-1.5-0.7c-0.6-0.8-0.4-2,0.4-2.6c0.8-0.6,2-0.4,2.6,0.4
					c0.3,0.4,0.4,0.9,0.4,1.4c-0.1,0.5-0.3,0.9-0.7,1.2C101.5,70.4,101.1,70.6,100.7,70.6z"/>
			</g>
			<path class="st1" d="M101.9,54.4c-4,3.4-3.5,6.5-2.4,7.4c0.8-1,1.9-2.8,2.4-5c0.5,1.2-0.6,3.5-2.2,5.2c0.1,0,0.2,0.1,0.2,0.1
				c1.4,0.3,2.9-1.1,3.4-3.2C103.9,56.8,103,53.5,101.9,54.4z"/>
			<path class="st1" d="M110.1,78.8c-5.1,1-7.3-1.2-7.3-2.7c1.3,0,3.4,0.3,5.4,1.2c-0.6-1.1-3.1-1.7-5.4-1.4c0-0.1,0-0.2,0.1-0.2
				c0.6-1.3,2.6-1.6,4.6-0.8C109.5,75.8,111.5,78.6,110.1,78.8z"/>
			<path class="st1" d="M115.4,65.5c-5.7,5.1-10,3.8-11.1,2c1.7-0.9,4.4-2.2,7.7-2.6c-1.7-1-5.1,0.2-7.9,2.2c0-0.1-0.1-0.2-0.1-0.4
				c-0.2-2.1,2.1-4,5.2-4.4C112.4,62,116.9,64.1,115.4,65.5z"/>
		</g>
		<g>
			<path class="st2" d="M43.5,111.1c1.2-1.8-7.3,3.9-7.8,4.2c-0.5,0.3,2.1,1.8,3.2,1C41.2,114.8,42.5,112.6,43.5,111.1z"/>
			<path class="st2" d="M46.4,109.3c-3.2,7.5-6.8,8.9-5.7,9.3c2.2,0.8,10.9-1.8,10.6-2.6C51,115,47.1,107.8,46.4,109.3z"/>
			<path class="st2" d="M50.5,104.4c0.4,2.8,5.7,11.4,17.9,15c11.2,3.3-15.4,0.3-20.2-12C47.7,105.9,50.3,103.5,50.5,104.4z"/>
			<path class="st2" d="M59.1,82c-4,5.1,0.6,17.3,6.4,22.8c4.1,3.9-3.1-19.5,5.9-21.3C90,79.7,97.6,69.2,99,63
				C87.1,81.5,63,77,59.1,82z"/>
		</g>
		<g>
			<g>
				<path class="st2" d="M21.1,76.7c0,0-0.1,0-0.1,0c-0.1-0.1-0.1-0.2,0-0.3c1.2-1.9,0.8-4.4-0.8-5.9c-0.8-0.7-1.9-1.2-3.1-1.2
					c-1.3,0-2.6,0.6-3.5,1.6c-0.1,0.1-0.2,0.2-0.2,0.3l-0.1,0.1c-0.1,0.1-0.2,0.1-0.3,0.1c-0.1,0-0.1-0.2-0.1-0.3
					c0.2-0.6,0.5-1.1,0.9-1.5c1-1.1,2.4-1.7,3.8-1.7c1.3,0,2.5,0.5,3.4,1.3c1,0.9,1.6,2.2,1.7,3.5c0.1,1.4-0.4,2.7-1.3,3.7
					c0,0-0.1,0.1-0.1,0.1c0,0,0,0-0.1,0.1C21.2,76.7,21.1,76.7,21.1,76.7z"/>
			</g>
			<g>
				<path class="st2" d="M14.8,67.2c-0.5,0-0.9-0.2-1.2-0.5c-0.4-0.3-0.6-0.8-0.6-1.3c0-0.5,0.1-1,0.5-1.4c0.7-0.7,1.9-0.8,2.6-0.2
					c0.4,0.3,0.6,0.8,0.6,1.3c0,0.5-0.1,1-0.5,1.4C15.8,66.9,15.3,67.2,14.8,67.2z"/>
			</g>
			<path class="st3" d="M14.8,51c3.7,3.7,2.9,6.8,1.7,7.5c-0.7-1.1-1.6-3-2-5.2c-0.6,1.2,0.3,3.5,1.8,5.3c-0.1,0-0.2,0.1-0.2,0.1
				c-1.4,0.2-2.8-1.3-3.2-3.5C12.6,53.1,13.8,49.9,14.8,51z"/>
			<path class="st3" d="M4.6,73.5c5,1.5,7.3-0.6,7.5-2c-1.3-0.1-3.4,0-5.5,0.7c0.7-1.1,3.2-1.4,5.5-1c0-0.1,0-0.2-0.1-0.2
				c-0.5-1.3-2.5-1.9-4.5-1.2C5.5,70.5,3.3,73.1,4.6,73.5z"/>
			<path class="st3" d="M0.4,60.8c5.2,5.6,9.7,4.7,10.9,3c-1.6-1.1-4.2-2.5-7.5-3.2c1.7-0.8,5.1,0.6,7.7,2.9
				c0.1-0.1,0.1-0.2,0.1-0.3c0.4-2-1.7-4.2-4.8-4.8C3.7,57.7-1,59.3,0.4,60.8z"/>
		</g>
	</g>
	<g>
		<g>
			<g>
				<g>
					<path class="st4" d="M79.1,64.9L79.1,64.9c-1.1,0.1-2.1,0-3.1-0.4c-0.1,0-0.2-0.1-0.2-0.1c0,0-0.1,0-0.1-0.1
						c-0.1-0.1-0.2-0.2-0.2-0.3c0-0.1,0.2-0.2,0.3-0.2c0.5,0.1,1.1,0.1,1.6,0.1c2.8-0.2,5.1-2.1,6-4.6c1.2-3.6-0.7-7.6-4.4-8.8
						c-0.2-0.1-0.4-0.1-0.5-0.1l-0.2,0c-0.1,0-0.2-0.1-0.2-0.3c0-0.1,0.1-0.2,0.3-0.2c0.9,0,1.8,0.1,2.6,0.4c4,1.4,6.1,5.7,4.8,9.7
						C84.7,62.6,82.1,64.6,79.1,64.9z"/>
				</g>
				<g>
					<path class="st4" d="M77.6,71.3c-0.1,0-0.2,0-0.2-0.1c-0.1-0.1,0-0.3,0.1-0.3c0.5-0.3,0.9-0.7,1.4-1c2.6-1.9,5.4-3.8,6.8-6.9
						c0.3-0.6,0.5-1.3,0.8-2.1c1.2-3.4,3.1-8.5,9.8-12.5c0.1-0.1,0.3,0,0.3,0.1c0.1,0.1,0.1,0.3,0,0.3c-5.1,5.1-6.6,9.4-7.8,12.8
						c-0.5,1.4-0.9,2.6-1.5,3.6c-1.4,2.4-4.5,3.8-8.2,5.5C78.7,70.8,78.2,71.1,77.6,71.3C77.7,71.3,77.7,71.3,77.6,71.3z"/>
				</g>
			</g>
			<g>
				<path class="st4" d="M87.7,51.3c-0.3,0-0.7,0-1-0.1c-0.6-0.2-1.1-0.7-1.4-1.3c-0.3-0.6-0.3-1.3-0.1-1.9c0.3-0.9,1.2-1.6,2.2-1.7
					c0.3,0,0.7,0,1,0.1c0.6,0.2,1.1,0.7,1.4,1.3c0.3,0.6,0.3,1.3,0.1,1.9C89.6,50.6,88.7,51.3,87.7,51.3z"/>
			</g>
		</g>
		<path class="st5" d="M107.3,40.5c-3,7.2-7.6,8-9.4,6.8c1.1-1.6,3.1-4,6-5.8c-2-0.2-4.7,2.4-6.3,5.5c-0.1-0.1-0.2-0.2-0.2-0.3
			c-1.1-1.8,0.2-4.6,2.9-6.4C103,38.7,108.1,38.6,107.3,40.5z"/>
		<path class="st5" d="M70.3,39.6c0.9,7.8,5.1,9.7,7.2,9.1c-0.7-1.8-1.9-4.7-4.2-7.2c1.9,0.4,3.8,3.6,4.6,7c0.1-0.1,0.2-0.1,0.3-0.2
			c1.6-1.4,1.1-4.5-1.1-6.9C74.9,39,70.1,37.5,70.3,39.6z"/>
		<path class="st5" d="M85.4,26.4c-4.6,10.5-0.8,16.1,2.2,16.8c0.5-2.8,1.1-7.3,0.1-12.2c2.1,1.9,2.1,7.4,0.5,12.2
			c0.2,0,0.4,0,0.5,0c3-0.6,4.7-4.8,3.8-9.5C91.6,29.1,86.6,23.6,85.4,26.4z"/>
	</g>
	<g>
		<g>
			<g>
				<g>
					<path class="st4" d="M36.7,62.1c-3-0.5-5.4-2.6-6.2-5.5c-1.1-4,1.4-8.2,5.4-9.3c0.8-0.2,1.7-0.3,2.6-0.2c0.1,0,0.2,0.1,0.2,0.3
						c0,0.1-0.1,0.2-0.2,0.3l-0.3,0c-0.2,0-0.4,0-0.5,0.1c-3.7,1-5.9,4.8-5,8.5c0.7,2.6,2.9,4.6,5.6,5c0.5,0.1,1.1,0.1,1.7,0.1
						c0.1,0,0.3,0.1,0.3,0.2c0,0.1,0,0.3-0.2,0.3c0,0-0.1,0-0.1,0.1c-0.1,0-0.1,0.1-0.2,0.1C38.8,62.2,37.7,62.3,36.7,62.1z"/>
				</g>
				<g>
					<path class="st4" d="M37.7,68.6C37.7,68.6,37.7,68.6,37.7,68.6c-0.6-0.3-1.1-0.5-1.5-0.8c-3.5-1.9-6.5-3.5-7.7-6
						c-0.5-1.1-0.9-2.3-1.3-3.7c-1-3.5-2.2-7.9-6.9-13.3c-0.1-0.1-0.1-0.2,0-0.3c0.1-0.1,0.2-0.1,0.3,0c6.4,4.5,7.9,9.7,8.9,13.1
						c0.2,0.8,0.4,1.5,0.7,2.1c1.3,3.2,3.8,5.3,6.3,7.3c0.4,0.4,0.9,0.7,1.3,1.1c0.1,0.1,0.1,0.2,0,0.3
						C37.9,68.6,37.8,68.7,37.7,68.6z"/>
				</g>
			</g>
			<g>
				<path class="st4" d="M29,48.1L29,48.1c-1-0.1-1.8-0.9-2-1.8c-0.4-1.3,0.4-2.7,1.8-3.1c0.3-0.1,0.7-0.1,1-0.1
					c1,0.2,1.8,0.9,2,1.8c0.2,0.6,0.1,1.3-0.3,1.9c-0.3,0.6-0.9,1-1.5,1.2C29.7,48.1,29.3,48.1,29,48.1z"/>
			</g>
		</g>
		<path class="st5" d="M10.2,36c2.5,7.4,7,8.4,8.9,7.4c-1-1.6-2.8-4.2-5.6-6.2c2,0,4.5,2.7,5.9,5.9c0.1-0.1,0.2-0.2,0.3-0.3
			c1.2-1.7,0.1-4.6-2.5-6.5C14.6,34.4,9.6,34,10.2,36z"/>
		<path class="st5" d="M47.2,37.6c-1.4,7.7-5.8,9.4-7.8,8.6c0.8-1.8,2.2-4.5,4.7-6.9c-1.9,0.3-4.1,3.3-5,6.7
			c-0.1-0.1-0.2-0.1-0.3-0.2c-1.5-1.5-0.8-4.6,1.5-6.8C42.6,36.7,47.5,35.5,47.2,37.6z"/>
		<path class="st5" d="M33.1,23.4C37,34.1,32.8,39.5,29.7,40c-0.3-2.8-0.6-7.3,0.8-12.1c-2.3,1.8-2.6,7.2-1.3,12.2
			c-0.2,0-0.4,0-0.5-0.1c-3-0.8-4.4-5.2-3.2-9.7C26.7,25.7,32,20.5,33.1,23.4z"/>
	</g>
	<g>
		<g>
			<g>
				<g>
					<path class="st2" d="M51.9,78.8L51.9,78.8c-0.2,0-0.5,0-0.7-0.1c-0.1,0-0.1,0-0.1,0c0,0-0.1,0-0.1,0c-0.1,0-0.1-0.1-0.1-0.1
						c0-0.1,0.1-0.1,0.1-0.1c2.2-0.1,4-1.7,4.3-3.8c0.4-2.4-1.4-4.7-3.8-5.1c-0.1,0-0.2,0-0.4,0l-0.1,0c-0.1,0-0.1-0.1-0.1-0.1
						c0-0.1,0-0.1,0.1-0.1c0.6-0.1,1.1-0.1,1.7-0.1c2.7,0.4,4.5,2.9,4.1,5.5C56.3,77,54.2,78.8,51.9,78.8z"/>
				</g>
				<g>
					<path class="st2" d="M52.9,82.8c0,0-0.1,0-0.1,0c0-0.1,0-0.1,0-0.2c0.3-0.3,0.5-0.5,0.8-0.8c1.4-1.5,3-3,3.5-5.2
						c0.1-0.4,0.2-0.9,0.3-1.4c0.4-2.3,1-5.7,4.7-9c0.1,0,0.1,0,0.2,0c0.1,0,0.1,0.1,0,0.2c-2.6,3.8-3.1,6.7-3.4,9
						c-0.2,0.9-0.3,1.7-0.5,2.4c-0.6,1.7-2.4,2.9-4.5,4.4C53.6,82.4,53.3,82.6,52.9,82.8C53,82.8,53,82.8,52.9,82.8z"/>
				</g>
			</g>
			<g>
				<path class="st2" d="M56.6,69.1c-0.1,0-0.2,0-0.2,0c-0.9-0.1-1.4-0.9-1.3-1.8c0.1-0.8,0.9-1.5,1.8-1.3c0.9,0.1,1.4,0.9,1.3,1.8
					C58,68.5,57.4,69.1,56.6,69.1z"/>
			</g>
		</g>
		<path class="st3" d="M68.1,60c-1.1,4.9-3.9,5.9-5.1,5.4c0.5-1.1,1.5-2.9,3.1-4.3c-1.2,0.1-2.7,2.1-3.3,4.2c-0.1,0-0.1-0.1-0.2-0.2
			c-0.9-1-0.4-2.9,1.1-4.4C65.2,59.3,68.4,58.7,68.1,60z"/>
		<path class="st3" d="M44.7,63.7c1.5,4.8,4.4,5.5,5.6,4.9c-0.6-1.1-1.8-2.7-3.5-4c1.3,0,2.8,1.8,3.7,3.9c0.1-0.1,0.1-0.1,0.2-0.2
			c0.8-1.1,0.2-3-1.5-4.2C47.5,62.8,44.3,62.4,44.7,63.7z"/>
		<path class="st3" d="M52.6,53.7C50.9,60.8,54,63.9,56,64c0-1.8-0.2-4.7-1.4-7.7c1.6,1,2.2,4.4,1.7,7.7c0.1,0,0.2,0,0.3-0.1
			c1.8-0.7,2.4-3.6,1.3-6.4C56.9,54.6,53.1,51.7,52.6,53.7z"/>
	</g>
	<g>
		<g>
			<g>
				<g>
					<path class="st0" d="M65.7,47.2c-4.4,0-8.3-3.3-8.9-7.7c-0.7-4.9,2.7-9.4,7.6-10.2c1-0.1,2-0.1,3.1,0.1c0.2,0,0.3,0.2,0.3,0.4
						c0,0.2-0.2,0.3-0.4,0.3l-0.3,0c-0.2,0-0.4,0-0.6,0c-4.4,0.6-7.5,4.7-6.8,9.1c0.6,3.8,3.8,6.7,7.7,6.8c0.2,0,0.3,0.2,0.4,0.3
						c0,0.2-0.1,0.4-0.3,0.4c-0.1,0-0.1,0-0.2,0c-0.1,0-0.2,0.1-0.3,0.1C66.6,47.2,66.2,47.2,65.7,47.2z"/>
				</g>
				<g>
					<path class="st0" d="M63.8,54.7c-0.1,0-0.2,0-0.2-0.1c-0.5-0.4-1.1-0.7-1.6-1.1c-3.8-2.6-7.1-4.9-8.2-8c-0.5-1.3-0.7-2.8-1-4.5
						c-0.7-4.2-1.5-9.4-6.3-16.3c-0.1-0.2-0.1-0.4,0.1-0.5c0.1-0.1,0.4-0.1,0.5,0c6.9,6.1,8,12.4,8.7,16.5c0.2,1,0.3,1.8,0.5,2.5
						c1,3.9,3.8,6.7,6.4,9.4c0.5,0.5,0.9,1,1.4,1.4c0.1,0.1,0.1,0.4,0,0.5C64,54.6,63.9,54.7,63.8,54.7z"/>
				</g>
			</g>
			<g>
				<path class="st0" d="M57.1,29.6c-1.5,0-2.7-1.1-3-2.6c-0.1-0.8,0.1-1.6,0.6-2.2c0.5-0.6,1.2-1.1,2-1.2c1.6-0.2,3.2,0.9,3.4,2.5
					c0.1,0.8-0.1,1.6-0.6,2.2c-0.5,0.6-1.2,1.1-2,1.2C57.4,29.6,57.2,29.6,57.1,29.6z"/>
			</g>
		</g>
		<path class="st1" d="M36.1,12.9c1.9,9,7.1,10.8,9.4,9.8c-1-2.1-2.8-5.2-5.7-7.9c2.3,0.2,4.9,3.8,6.1,7.7c0.1-0.1,0.2-0.2,0.3-0.3
			c1.7-1.8,0.8-5.4-2-7.9C41.4,11.7,35.6,10.4,36.1,12.9z"/>
		<path class="st1" d="M78.8,19.7c-2.7,8.8-8,10.1-10.2,9c1.1-2,3.2-5,6.4-7.4c-2.3,0-5.2,3.3-6.7,7.1c-0.1-0.1-0.2-0.2-0.3-0.3
			c-1.5-2-0.3-5.4,2.7-7.7C73.7,18,79.6,17.3,78.8,19.7z"/>
		<path class="st1" d="M64.3,1.3c3.1,13-2.5,18.6-6.1,18.8c0-3.3,0.3-8.6,2.5-14c-2.8,1.7-4,8-3.1,14c-0.2,0-0.4-0.1-0.6-0.2
			c-3.4-1.3-4.4-6.6-2.4-11.7C56.6,3.1,63.5-2.2,64.3,1.3z"/>
	</g>
	<path class="st0" d="M58.5,97.8c-7.3-15.1-10.9-19.8-22-23.9c-7.1-2.7-13.9-4.8-19-13.3c0,5.5,7.4,10.9,11.6,13.5
		c7,4.3,17.4,9.4,19.9,21.8c3.7,18.4,19.3,23.6,36.8,25.1C88.4,121.1,67.3,115.9,58.5,97.8z"/>
</g>
</svg>
